<svg width="448" height="448" viewBox="0 0 448 448" fill="none" xmlns="http://www.w3.org/2000/svg">
<path d="M119.68 104.284C53.5823 161.879 46.6898 262.151 104.284 328.248C161.879 394.346 262.151 401.238 328.248 343.644C394.346 286.049 401.238 185.777 343.644 119.68C286.049 53.5824 185.777 46.6898 119.68 104.284Z" fill="#32BA7C"/>
<path d="M338.327 174.165C345.205 182.058 343.371 194.834 334.215 202.812L218.523 303.622C209.367 311.601 196.46 311.669 189.583 303.776L172.202 283.829C165.324 275.936 167.156 263.159 176.312 255.181L292.005 154.371C301.161 146.392 314.068 146.325 320.946 154.218L338.327 174.165Z" fill="white"/>
<path d="M202.584 317.311C194.691 324.189 184.019 324.769 178.655 318.612L110.869 240.819C105.504 234.663 107.539 224.171 115.432 217.293L135.379 199.912C143.272 193.034 153.946 192.452 159.311 198.609L227.096 276.402C232.461 282.559 230.424 293.052 222.531 299.93L202.584 317.311Z" fill="white"/>
</svg>
