<svg width="320" height="320" viewBox="0 0 320 320" fill="none" xmlns="http://www.w3.org/2000/svg">
<path d="M261.547 36.8906C262.356 37.5867 263.166 38.2828 264 39C265.431 40.2297 265.431 40.2297 266.891 41.4844C296.598 67.5787 315.65 105.624 319 145C321.591 190.459 308.805 232.302 278.727 266.809C272.361 273.923 265.65 280.26 258 286C256.967 286.798 255.935 287.596 254.871 288.418C227.937 308.793 194.561 319.472 160.875 319.312C158.981 319.304 158.981 319.304 157.049 319.295C114.793 318.752 75.3878 301.274 45.4951 271.534C22.5104 247.949 6.65257 216.645 2.00001 184C1.90865 183.373 1.81728 182.745 1.72315 182.099C-3.61837 140.947 6.72594 97.9469 31.832 64.7226C59.4733 30.0092 97.0329 6.49367 141.56 1.20286C185.188 -2.42442 227.589 8.7794 261.547 36.8906Z" fill="#32BA7C"/>
<path d="M251.062 85.5625C258.548 89.7565 263.555 96.7628 268.848 103.34C270.692 105.62 272.575 107.851 274.5 110.062C278.441 114.693 278.414 117.799 278.328 123.77C277.418 132.727 272.382 138.177 265.73 143.797C264.829 144.524 263.928 145.251 263 146C262.13 146.706 261.26 147.413 260.363 148.141C258.55 149.613 256.735 151.083 254.918 152.551C251.099 155.756 247.477 159.149 243.839 162.556C239.626 166.479 235.236 170.119 230.746 173.723C227.737 176.218 224.861 178.838 222 181.5C217.412 185.769 212.666 189.758 207.781 193.687C204.228 196.642 200.86 199.769 197.478 202.916C194.267 205.887 190.974 208.7 187.562 211.437C183.378 214.803 179.417 218.332 175.5 222C170.695 226.5 165.748 230.731 160.613 234.855C158.002 236.999 155.496 239.224 153 241.5C133.755 258.943 133.755 258.943 124.938 259.5C116.156 258.385 112.672 253.738 107.453 247.062C104.924 243.906 102.261 240.951 99.5 238C95.2295 233.414 91.2423 228.665 87.3125 223.781C84.3582 220.228 81.2309 216.86 78.0837 213.478C75.1128 210.267 72.3004 206.974 69.5625 203.562C66.1786 199.354 62.6265 195.376 58.9375 191.437C44.296 175.774 44.296 175.774 43.75 168.812C44.2222 161.611 46.4446 156.899 51.6836 152.131C52.283 151.613 52.8824 151.096 53.5 150.562C54.12 150.008 54.7401 149.454 55.3789 148.883C57.2362 147.235 59.1125 145.613 61 144C61.5388 143.538 62.0777 143.076 62.6328 142.601C78.2249 129.337 78.2249 129.337 88 130C96.6591 133.067 101.995 141.141 107.547 148.043C110.105 151.126 112.77 154.07 115.5 157C120.592 162.469 125.34 168.155 130 174C134.087 171.756 137.244 169.074 140.625 165.875C144.479 162.269 148.382 158.807 152.5 155.5C157.019 151.864 161.28 148.032 165.522 144.084C168.733 141.113 172.026 138.3 175.438 135.562C179.622 132.197 183.583 128.668 187.5 125C192.261 120.541 197.165 116.362 202.254 112.277C205.263 109.782 208.139 107.162 211 104.5C237.89 79.5655 237.89 79.5655 251.062 85.5625Z" fill="#FDFEFE"/>
</svg>
